<svg xmlns="http://www.w3.org/2000/svg" xmlns:xlink="http://www.w3.org/1999/xlink" width="123" height="37" viewBox="0 0 123 37">
    <defs>
        <path id="a" d="M71.61 11.924c-1.932 2.204-3.986 1.207-5.618.396-.686-.339-5.642-3.149-5.642-3.149-2.715-1.12-4.83.102-5.66 1.13-.085.11-.16.211-.216.31l-.191.335a15.128 15.128 0 0 1-1.09 1.628 9.173 9.173 0 0 1-.781.892c-1.857 1.877-4.827 3.19-9.79.804-2.35-1.362-10.005-5.736-10.005-5.736-2.874-1.184-5.077.259-5.79 1.317a.809.809 0 0 0-.083.127l-.094.16-.486.793c-.208.327-.438.664-.702 1.01a10.44 10.44 0 0 1-.784.892c-1.845 1.864-4.798 3.174-9.717.834-2.975-1.698-9.894-5.654-9.894-5.654l-.002-.003L.001 5.117 2.62 1.9C3.723.85 5.796-.874 9.002.579c0 0 8.85 5.124 8.884 5.14 7.565 4.151 11.3.184 12.949-2.46.057-.083.104-.172.155-.252l.004-.004c.02-.032.034-.062.05-.092l.188-.306c.803-1.22 2.073-2.007 3.584-1.97.834.016 1.4.289 2.223.746l8.562 4.966c.006.003.01.006.018.008 7.66 4.202 11.456-.025 13.078-2.669.125-.229.27-.446.415-.65.803-1.089 1.91-1.802 3.317-1.767.928.019 1.97.576 2.124.678l10.266 5.924s-1.05 1.584-3.21 4.053z"/>
        <linearGradient id="c" x1="8.381%" x2="115.212%" y1="-49.493%" y2="188.063%">
            <stop offset="0%" stop-color="#FAB10B"/>
            <stop offset="22.472%" stop-color="#FBC707"/>
            <stop offset="39.326%" stop-color="#F89C0E"/>
            <stop offset="52.809%" stop-color="#FBC707"/>
            <stop offset="64.607%" stop-color="#F89C0E"/>
            <stop offset="76.404%" stop-color="#FBC707"/>
            <stop offset="100%" stop-color="#FBC707"/>
        </linearGradient>
    </defs>
    <g fill="none" fill-rule="evenodd">
        <path fill="#133A73" d="M.732 25.046c0-1.762-.03-3.242-.126-4.563h3.337l.158 2.27h.093c.755-1.198 2.14-2.617 4.721-2.617 2.015 0 3.588 1.136 4.248 2.833h.065c.534-.85 1.162-1.479 1.886-1.918.85-.598 1.828-.915 3.085-.915 2.55 0 5.129 1.731 5.129 6.645v9.03h-3.776v-8.467c0-2.547-.881-4.06-2.738-4.06-1.322 0-2.298.945-2.707 2.047-.094.375-.188.85-.188 1.288v9.192h-3.777v-8.878c0-2.136-.849-3.649-2.645-3.649-1.445 0-2.42 1.134-2.77 2.203-.156.377-.22.819-.22 1.258v9.066H.732V25.046"/>
        <path fill="#133A73" fill-rule="nonzero" d="M34.263 28.323c-2.739-.064-5.35.533-5.35 2.861 0 1.511.978 2.205 2.204 2.205 1.54 0 2.674-1.01 3.02-2.111.093-.285.126-.597.126-.849v-2.106zm3.778 3.806c0 1.384.062 2.736.219 3.682h-3.494l-.25-1.699h-.096c-.945 1.197-2.55 2.044-4.53 2.044-3.085 0-4.816-2.232-4.816-4.563 0-3.873 3.428-5.821 9.096-5.79v-.252c0-1.007-.41-2.676-3.118-2.676-1.511 0-3.084.473-4.122 1.133l-.755-2.518c1.133-.693 3.115-1.354 5.538-1.354 4.91 0 6.328 3.119 6.328 6.452v5.541z"/>
        <path fill="#133A73" d="M40.715 25.046c0-1.762-.033-3.242-.123-4.563h3.395l.189 2.3h.096c.66-1.197 2.329-2.647 4.877-2.647 2.676 0 5.444 1.731 5.444 6.58v9.095h-3.87v-8.653c0-2.205-.82-3.874-2.927-3.874-1.54 0-2.613 1.102-3.02 2.267-.126.346-.158.818-.158 1.257v9.003h-3.903V25.046"/>
        <path fill="#133A73" fill-rule="nonzero" d="M67.506 26.872c0-.313-.031-.691-.096-1.008-.346-1.507-1.571-2.736-3.335-2.736-2.486 0-3.872 2.203-3.872 5.067 0 2.798 1.386 4.846 3.842 4.846 1.57 0 2.957-1.07 3.334-2.74.096-.345.127-.724.127-1.132v-2.297zm3.87-12.545v17.171c0 1.573.064 3.275.125 4.313h-3.46l-.157-2.422h-.064c-.913 1.699-2.77 2.767-5.003 2.767-3.652 0-6.545-3.115-6.545-7.833-.034-5.132 3.176-8.187 6.859-8.187 2.107 0 3.62.882 4.31 2.019h.065v-7.828h3.87z"/>
        <path fill="#133A73" d="M74.113 35.81V20.484h3.905v15.328h-3.905M80.753 25.426c0-2.078-.031-3.559-.124-4.943h3.368l.123 2.924h.128c.756-2.168 2.548-2.924 4.188-2.924.375 0 .596-.063.909 0v3.401a5.296 5.296 0 0 0-1.13-.126c-1.86 0-3.119 1.195-3.464 2.924a6.867 6.867 0 0 0-.125 1.2v7.929h-3.873V25.426M91.142 35.81V20.484h3.9v15.328h-3.9"/>
        <g transform="matrix(1 0 0 -1 47.722 16.199)">
            <mask id="b" fill="#fff">
                <use xlink:href="#a"/>
            </mask>
            <g fill="url(#c)" mask="url(#b)">
                <path d="M71.61 11.924c-1.932 2.204-3.986 1.207-5.618.396-.686-.339-5.642-3.149-5.642-3.149-2.715-1.12-4.83.102-5.66 1.13-.085.11-.16.211-.216.31l-.191.335a15.128 15.128 0 0 1-1.09 1.628 9.173 9.173 0 0 1-.781.892c-1.857 1.877-4.827 3.19-9.79.804-2.35-1.362-10.005-5.736-10.005-5.736-2.874-1.184-5.077.259-5.79 1.317a.809.809 0 0 0-.083.127l-.094.16-.486.793c-.208.327-.438.664-.702 1.01a10.44 10.44 0 0 1-.784.892c-1.845 1.864-4.798 3.174-9.717.834-2.975-1.698-9.894-5.654-9.894-5.654l-.002-.003L.001 5.117 2.62 1.9C3.723.85 5.796-.874 9.002.579c0 0 8.85 5.124 8.884 5.14 7.565 4.151 11.3.184 12.949-2.46.057-.083.104-.172.155-.252l.004-.004c.02-.032.034-.062.05-.092l.188-.306c.803-1.22 2.073-2.007 3.584-1.97.834.016 1.4.289 2.223.746l8.562 4.966c.006.003.01.006.018.008 7.66 4.202 11.456-.025 13.078-2.669.125-.229.27-.446.415-.65.803-1.089 1.91-1.802 3.317-1.767.928.019 1.97.576 2.124.678l10.266 5.924s-1.05 1.584-3.21 4.053"/>
            </g>
        </g>
    </g>
</svg>
