<?xml version="1.0" encoding="UTF-8"?>
<!DOCTYPE svg PUBLIC "-//W3C//DTD SVG 1.1//EN" "http://www.w3.org/Graphics/SVG/1.1/DTD/svg11.dtd">
<!-- Creator: CorelDRAW 2019 (64-Bit) -->
<svg xmlns="http://www.w3.org/2000/svg" xml:space="preserve" width="134.525mm" height="48.8491mm" version="1.1" style="shape-rendering:geometricPrecision; text-rendering:geometricPrecision; image-rendering:optimizeQuality; fill-rule:evenodd; clip-rule:evenodd"
viewBox="0 0 7143.21 2593.87"
 xmlns:xlink="http://www.w3.org/1999/xlink"
 xmlns:xodm="http://www.corel.com/coreldraw/odm/2003">
 <defs>
  <style type="text/css">
   <![CDATA[
    .fil0 {fill:#000A62}
    .fil1 {fill:#DA251D}
    .fil2 {fill:#FFF700}
   ]]>
  </style>
 </defs>
 <g id="Layer_x0020_1">
  <metadata id="CorelCorpID_0Corel-Layer"/>
  <g id="_2332939683152">
   <g>
    <path class="fil0" d="M1633.49 1881.98c124.25,0 353.06,-24.3 353.06,138.28 0,174.51 -193.96,147.73 -352.78,147.73l-0.43 -23.24 0.15 -262.77zm-0.15 -386.55c132.09,0 283.21,-18.9 275.31,139.66 -7.53,151.46 -186.93,130.96 -275.31,130.96l0 -270.62zm275.96 309.72c15.12,-9.18 28.82,-14.78 43.51,-24.27 125.21,-80.9 109.43,-245.63 27.24,-325.09 -106.87,-103.29 -313.16,-75.87 -477.92,-75.87l0 903.65c107.39,0 222.15,3.87 328.62,-1.3 232.92,-11.29 346.29,-181.96 269.06,-341.56 -39.25,-81.11 -91.66,-102.92 -190.52,-135.56z"/>
    <path class="fil0" d="M6762.83 2302.3c63.88,-14.33 161.13,3.99 204.16,35.79 72.18,53.33 7.2,119.38 -62.53,131.85 -262.84,47.02 -291.29,-134.08 -141.63,-167.64zm38.16 -508.4c151.1,-41.62 201.37,163.14 72.88,201.1 -157.29,46.47 -214.28,-162.15 -72.88,-201.1zm194.56 -15.2c73.05,-7.35 136.02,-21.95 147.66,-90.06 -159.81,0 -581.49,-56.85 -521.58,247.84 15.41,78.37 69.41,102.69 115.14,137.15 -23.8,15.54 -158.09,56.13 -29.83,157.41 -61.05,27.59 -106.57,38.43 -131.13,94.24 -29.01,65.9 1.21,140.98 35.88,172.43 76.22,69.12 239.2,90.51 358.95,50.32 192.85,-64.71 171.94,-263.15 21.44,-312.15 -26.65,-8.67 -61.95,-17.06 -88.88,-23.44 -78,-18.48 -141.83,-18.77 -140.67,-82 79.17,-55.69 188.92,-28.56 246.52,-107.14 92.69,-126.46 22.14,-190.54 -13.5,-244.58z"/>
    <path class="fil0" d="M5533.23 1919.42c9.66,-82.25 64.55,-143.77 150.83,-144.29 95.28,-0.56 131.99,54.48 141.59,144.21l-292.42 0.08zm394.11 184.69c-33.77,15.82 -60.91,39.48 -106.88,52.42 -138.52,38.96 -275.85,4.57 -289.21,-168.26l405.66 0c26.53,-147.57 -78.07,-287.52 -196.39,-308.02 -345.19,-59.83 -426.54,404.17 -196.74,557.39 87.05,58.04 250.12,52.87 352.67,-4.82 42.9,-24.13 32.07,-22.64 30.89,-128.71z"/>
    <path class="fil0" d="M4045.14 2567.72c139.75,0 232.93,-2.89 290.28,-99.96 54.11,-91.56 39.8,-226.74 39.8,-340.79 0,-101.12 6.97,-710.71 -3.01,-756.13 -126.95,43.48 -123.79,76.96 -123.78,222.57 0,213.42 5.21,482.08 -0.07,687.94 -3.65,142 -40.58,164.13 -178.05,164.27l-25.19 122.1z"/>
    <path class="fil0" d="M2839.88 2283.58c0,-117.41 0.16,-234.83 0,-352.25 -0.11,-81.27 -1.13,-86.3 49.39,-127.02 29.49,-23.77 81.58,-39.63 131.93,-26.4 187.18,49.18 -40.46,467.88 198.65,503.69 0,-114.19 17.06,-428.04 -28.96,-507.17 -29.57,-50.85 -85.55,-96.85 -168.51,-98.77 -108.64,-2.51 -127.8,50.73 -182.27,82.48l-0.92 -69.51 -119.41 0 0.84 594.94 119.27 0z"/>
    <path class="fil0" d="M2464.23 2156.61c-22.9,65.78 -192.98,86.49 -190.27,-29.58 1.24,-53.58 36.1,-73.55 74.3,-93.02 30.9,-15.74 80.36,-35.26 115.97,-43.82l0 166.42zm-292.87 -275.54c41.04,-67.39 300.94,-201.09 292.33,43.07 -124.48,37.62 -300.7,82.93 -306.11,215.22 -5.73,140.32 143.97,208.32 304.21,97.27 21.45,43 58.52,67.71 114.37,49.19 43.24,-14.33 76.18,-53.12 87.07,-101.31 -27.77,10.49 -43.16,27.11 -78.75,18.62 -14.83,-40.27 -6.9,-226.43 -6.82,-283.65 0.14,-105.54 -9.32,-166.77 -76.34,-208.3 -117.22,-72.64 -290.19,-22.19 -326.28,36.79 -12.21,19.95 -9.36,104.09 -3.69,133.1z"/>
    <path class="fil0" d="M6155.03 2270.52c0,-115.04 0.18,-230.08 0,-345.12 -0.14,-86.64 -4.73,-82.73 47.29,-122.07 34.72,-26.24 80.84,-42.08 133.77,-25.88 181.75,55.6 -49.4,489.22 189.96,493.07 0,-121.32 18.34,-411.79 -29.86,-499.06 -27.56,-49.9 -82.22,-95.08 -165.8,-95.9 -107.23,-1.05 -152.44,71.05 -175.23,81.75l-0.76 -68.67 -117.26 0 -0.03 581.88 117.93 0z"/>
    <path class="fil0" d="M4757.27 1985.1c0,33.46 -0.08,66.93 0.01,100.38 0.11,39.28 7.9,64.15 -15.29,83.5 -72.27,60.31 -187.04,26.2 -166.52,-70.58 14.64,-69.06 157.76,-110.85 181.8,-113.3zm-287.06 -108.75c29.58,-29.84 96.63,-87.8 164.92,-92.27 104.31,-6.83 122.15,38.43 122.15,133.89 -53.04,27.03 -128.5,41.64 -185.55,68.77 -235.72,112.08 -70.43,415.24 182.09,236.77 20.28,23.87 12.6,34.14 45.79,46.8 85.21,32.51 147.08,-42.96 153.25,-98.96 -21.07,12.92 -47.18,26.93 -77.55,22.33 -30.19,-160.34 38.41,-338.03 -47.68,-455.38 -31.51,-42.95 -110.38,-66.8 -187.18,-61.72 -109.15,7.22 -119.11,40.91 -172.19,74.49l1.95 125.28z"/>
    <path class="fil0" d="M5154.06 1572.05c-27.53,21.68 -203.87,184.23 -214.62,220.94l99.64 0.82c22.38,99.24 -24.38,318.06 23.46,403.3 55.56,98.96 192.33,96.51 307.99,48.44l-0.29 -106.65c-31.13,9.31 -187.37,98.37 -211.42,-31.51 -12.72,-68.73 -3.75,-235.57 -3.75,-314.28l184.01 -0.58 0.07 -103.77 -183.96 -0.13 -1.15 -116.57z"/>
    <path class="fil0" d="M3324.09 2283.58l117.92 -0.44 -0.01 -902c-83.39,3.32 -115.95,50.25 -117.89,135.09 -5.36,234.85 -0.02,528.01 -0.02,767.36z"/>
    <path class="fil0" d="M3850.34 1688.97l-141.62 -0.28c-20.63,27.39 -44.07,47.47 -65.84,74.79l-64.02 72.48c-11.97,14.2 -22.97,21.86 -34.93,35.94l-64.11 72.39c-10.57,13.07 -17.79,22.59 -28.49,34.47 20.63,28.33 63.72,68.14 90.96,96.49 32.4,33.7 60.71,62.87 92.93,96.83 50.23,52.94 151.1,111.8 263.39,109.58 -27.47,-38.89 -110.71,-113.09 -149.76,-152.11 -30.93,-30.91 -130.69,-122.03 -146.37,-150.78l247.85 -289.8z"/>
   </g>
   <path class="fil1" d="M473.8 2409.17c94.78,-310.68 212.21,-523.86 381.98,-790.78 32.4,-50.94 62.02,-91.38 94.87,-137.74l102.77 -134.85c-25.2,7.09 -66.89,30.96 -89.65,43.53 -159.93,88.29 -302.39,205.69 -441.33,322.9 -22.04,18.6 -45.88,38.28 -66.91,56.81l-65.18 62.9c-99.75,97.87 -350.44,377.96 -390.36,494.63 30.35,15.68 77.63,47.18 107.25,67l315.49 200.29 51.06 -184.69z"/>
   <path class="fil1" d="M1210.77 1241.18l199.53 -112.79c69.99,-37.47 138.77,-70.71 214.04,-104.15 103.82,-46.12 233.9,-97.47 345.9,-128.69 11.08,-3.09 121.6,-30.48 126.12,-37.8l66.08 -300.43c-78.35,20.12 -215.68,94.4 -279.11,132.47 -112.06,67.26 -142.18,89.04 -245.94,162.39 -41.99,29.68 -75.65,58.79 -114.28,89.86 -19.83,15.95 -34.17,28.97 -54.14,45.52l-79.5 72.39c-63.27,61.26 -112.26,91.41 -178.7,181.24z"/>
   <path class="fil2" d="M1559.61 656.04c9.22,-19.93 87.06,-101.9 108.77,-124.17l84.52 -76.93c47.13,-36.18 78.68,-67.54 134.84,-107.34l287.3 -196.9c32.5,-21.36 71.02,-38.01 100.84,-62.12l-27.45 -16.6c-11.56,-5.5 -21.09,-9.56 -32.7,-14.93 -150.37,-69.54 -108.97,-74.7 -177.87,-19.84l-91.13 89.23c-116.46,121.13 -240.03,267.08 -325,410.96 -15.4,26.08 -53.9,91.28 -62.12,118.65z"/>
   <path class="fil2" d="M281.38 1675.02c42.68,-20.94 208.62,-144.66 338.05,-207.4 137.67,-66.73 284.72,-106.26 391.24,-156.94 -171.53,-17.36 -422.67,39.79 -580.79,100.25 -55.74,21.31 -43.01,18.27 -66.37,71.26 -14.24,32.31 -27.12,63.5 -41.47,96.33 -12.87,29.46 -32.95,68.85 -40.66,96.49z"/>
   <path class="fil2" d="M1188.42 1151.56c54.14,-78.11 70.87,-125.61 150.88,-227.18l170.58 -213.81 -128.49 -81.07 -110.38 245.65c-20.02,50.78 -79.88,225.98 -82.59,276.41z"/>
   <path class="fil2" d="M1055.72 682.23c1.66,133.22 27.47,359.76 82.5,460.1 8.56,-77.93 6.82,-167.61 14.07,-247.82l26.3 -234.96 -122.86 22.67z"/>
   <path class="fil2" d="M1219.41 536.07c15.19,-70.1 53.26,-165.34 80.01,-230.85 37.14,-90.94 33.99,-79.7 72.29,-155.42 9.86,-19.49 22.27,-35.7 29.44,-51.35l-132.64 -5.34c-21.38,68.05 -42.59,124.4 -51.17,201.75 -5.39,48.63 -15.73,205.71 2.07,241.21z"/>
   <path class="fil2" d="M528.93 1211.84c76.47,5.73 152.61,10.56 227.75,18.71 71.71,7.77 150.71,20.41 220.92,24.27 -97.15,-63.43 -216.74,-120.86 -345.95,-157.71l-102.72 114.73z"/>
   <polygon class="fil2" points="101.01,1032.42 537.29,1056.52 198.7,928.26 "/>
   <path class="fil2" d="M298.5 1341.83c60.91,-8 120.61,-22.9 182.23,-31.5 56.2,-7.85 148,-11.25 197,-22.45 -78.29,-22.75 -250.24,-50.33 -335.72,-44.77l-43.52 98.72z"/>
   <path class="fil2" d="M182.24 1813.36l0.19 119.39c8.07,-8.59 20.97,-18.12 31.31,-30.4l206.08 -192.86c9.91,-7.74 11.19,-8.08 19.34,-13.73l19.33 -16.74c-79.08,11.69 -227.16,96.49 -276.26,134.35z"/>
   <path class="fil2" d="M733.13 1004.94c22.21,18.6 140.18,91.53 190.46,130.67l66.04 46.95c-9.03,-24.21 -98.66,-171.96 -122.13,-195.05 -13.44,-13.23 -19.07,-22.47 -40.99,-16.26 -24.08,6.82 -78.15,20.75 -93.39,33.7z"/>
   <path class="fil2" d="M926.27 886.24c10.21,65.29 97.59,234.4 132.57,261.45 -10.71,-88.01 -45.98,-174.26 -57.85,-317.88 -11.97,5.84 -66.07,46.65 -74.73,56.43z"/>
   <path class="fil2" d="M1243.54 760.77l72.63 -163.46c11.74,-26.53 25.41,-51.76 37.78,-76 9.32,-18.28 38.83,-60.28 41.52,-74.73l-75.28 -4.49c-37.41,63.36 -71.96,233.86 -76.65,318.68z"/>
   <path class="fil2" d="M83.82 1408.54l-30.21 89.9 253.78 -81.76c14.29,-3.8 28.75,-5.55 41.09,-14.01 -80.28,-12.22 -183.03,-0.34 -264.67,5.87z"/>
   <path class="fil2" d="M546.98 736.2c74.39,45.62 123.82,69.5 194.1,126.09 21.86,17.6 37.34,33.12 59.73,47.82 -9,-18.17 -24.87,-36.59 -38.09,-55.27l-126.15 -158.07 -89.59 39.43z"/>
  </g>
 </g>
</svg>
