<svg xmlns="http://www.w3.org/2000/svg" width="127" height="30" viewBox="0 0 127 30">
    <g fill="#00529C" fill-rule="evenodd">
        <path fill-rule="nonzero" d="M34.169 7.61h6.79c2.75 0 4.8 1.206 4.8 3.744 0 1.862-.951 2.898-2.601 3.448v.042c1.967.403 2.982 1.46 2.982 3.258 0 3.532-3.11 4.272-5.753 4.272h-6.218V7.611zm3.934 5.84h1.1c1.29 0 2.624-.318 2.624-1.567 0-1.352-1.27-1.48-2.583-1.48h-1.141v3.046zm0 6.133h1.164c1.438 0 2.94-.212 2.94-1.714 0-1.607-1.544-1.755-2.9-1.755h-1.204v3.47zM51.304 7.61h4.823l5.69 14.764h-4.315l-1.1-3.15H50.86l-1.163 3.15h-3.998l5.605-14.763zm2.411 3.047h-.042l-1.904 5.775h3.703l-1.757-5.775z"/>
        <path d="M62.364 7.61h5.012l4.993 10.027h.041l-.062-10.026h3.596v14.763h-4.888l-5.16-10.09h-.04l.124 10.09h-3.616zM77.279 7.61h3.934v6.03h.042l4.441-6.03h4.738l-5.456 6.874 5.88 7.89h-5.014l-4.589-6.705h-.042v6.705h-3.934z"/>
        <g fill-rule="nonzero">
            <path d="M95.736 7.61h6.79c2.749 0 4.801 1.206 4.801 3.744 0 1.862-.95 2.898-2.6 3.448v.042c1.967.403 2.98 1.46 2.98 3.258 0 3.532-3.108 4.272-5.752 4.272h-6.219V7.611zm3.934 5.84h1.1c1.291 0 2.622-.318 2.622-1.567 0-1.352-1.267-1.48-2.58-1.48H99.67v3.046zm0 6.133h1.164c1.437 0 2.94-.212 2.94-1.714 0-1.607-1.544-1.755-2.898-1.755H99.67v3.47zM108.58 7.61h7.023c2.622 0 4.758 1.186 4.758 3.724 0 1.967-.93 3.278-2.833 3.722v.042c1.267.339 1.352 1.46 2.093 3.258l1.438 4.018h-4.103l-.846-2.663c-.804-2.539-1.312-3.175-2.771-3.175h-.825v5.838h-3.934V7.611zm3.934 6.134h1.036c1.27 0 2.878-.042 2.878-1.713 0-1.374-1.375-1.628-2.878-1.628h-1.036v3.341z"/>
        </g>
        <path d="M122.143 7.61h3.934v14.764h-3.934z"/>
        <path fill-rule="nonzero" d="M25.192.166H4.602C2.103.166.078 2.242.078 4.803v20.39c0 2.536 1.988 4.599 4.456 4.636H25.18c2.5 0 4.528-2.075 4.528-4.636l.009-20.39c0-2.561-2.025-4.637-4.525-4.637zM7.049 27.453l-1.122.013c-1.36 0-2.463-1.118-2.463-2.497l-.006-.196V5.943l.007-1.015c.052-1.334 1.065-2.406 2.392-2.406H8.14c2.07 0 3.748 1.8 3.748 3.921 0 1.05-.411 2.003-1.078 2.695l-5.826 5.913 5.461 5.56c.704.727 1.13 1.68 1.13 2.723 0 2.275-2.026 4.12-4.526 4.12zm16.789-.019l-10.181-.003s1.176-2.544 1.176-4.12c0-1.92-.641-3.635-1.646-4.77l-3.483-3.55 3.554-3.673c1.059-.994 1.761-2.759 1.761-4.77 0-1.592-.44-3.002-1.149-4.026h2.467c2.07 0 3.748 1.8 3.748 3.921 0 1.05-.41 2.003-1.077 2.695l-5.715 5.851 11.87 12.104c-.376.236-.85.341-1.325.341zm2.486-3.778l-8.506-8.67 4.051-4.118c.824-1.031 1.348-2.584 1.348-4.32 0-1.602-.447-3.049-1.162-4.072l1.813.055c1.36 0 2.462 1.117 2.462 2.496l-.006 18.629z"/>
    </g>
</svg>
