<svg xmlns="http://www.w3.org/2000/svg" width="102" height="33" viewBox="0 0 102 33">
    <g fill="#005FAF" fill-rule="evenodd" stroke="#005FAF" stroke-width=".5">
        <path d="M39.264 10.706l3.872-7.592h10.476c9.047 0 8.106 9.414 1.746 12.298 6.09 3.079 2.105 13.514-6.756 13.438H36.455l4.63-18.144h-1.821zm8.578 2.808l.76-3.568h2.885c2.787.684.38 3.72-1.063 3.568h-2.582zm-2.277 8.731l1.139-4.1h2.885c3.416.684 1.29 4.252-.987 4.1h-3.037z"/>
        <path d="M80.229 12.81l3.977-7.022-5.381-2.807-.703.867C75.22 2.31 60.016 4.433 59.064 19.43c.57 12.58 14.666 10.318 16.05 9.52l3.876-8.016c-3.797 2.502-11.572 3.702-11.901-3.811.682-6.196 7.997-8.51 13.14-4.313zM83.962 10.478h1.997L76.744 28.85h8.92l1.83-4.432h5.476l.136 4.432h8.21l-1.24-25.736H87.85l-3.887 7.364zm9.144 7.975l-.136-7.148-2.995 7.148h3.131zM28.883 4.036c4.09 8.907 3.518 17.45.058 24.548-7.362 3.698-16.418 3.97-24.606-.173C.38 20.05.502 10.61 4.335 3.862c7.432-3.69 16.748-3.8 24.548.174zm.464-.575c4.252 9.263 3.658 18.147.06 25.53-7.657 3.844-17.075 4.128-25.591-.181-4.113-8.695-3.986-18.513 0-25.53 7.73-3.837 17.418-3.952 25.53.18z"/>
        <path d="M14.089 24.418h.555s.338-2.217-2.016-3.903c-1.484-1.063-5.758-1.29-6.44-2.68-1.378 2.058-.258 4.436 1.284 4.984 2.457.902 5.524-1.75 6.617 1.6zM18.146 24.418h.512c1.552-3.615 4.431.133 7.434-2.021 1.208-.867 1.624-2.557.467-4.561-.669 2.022-7.99.756-8.413 6.582zM16.096 24.418h.64c.001-2.433-.45-6.43.736-9.48 1.451-2.847 2.617-2.436 3.784-5.293.678-2.858-.544-5.927-4.52-6.335-4.585.247-5.95 3.45-5.148 6.41.506 1.87 2.792 2.911 3.695 5.226 1.192 3.054.756 7.204.813 9.472z"/>
        <path d="M15.164 24.418c-.119-1.329-.436-2.445-1.118-3.3-3.124-3.918-9.51-.968-7.87-7.627.854-3.404 10.587-5.412 9.47 10.922l-.482.005zM17.164 24.442h.57c.01-1.903.672-3.158 1.93-4.252 3.329-2.419 8.525-.801 6.911-6.699-1.178-2.94-6.489-4.094-8.81 2.441-.697 1.964-.635 4.678-.601 8.51zM8.865 27.151l.77.257-.37 1.283-.314-.085.028-.2c-.384.175-1.087.044-1.169-.399-.083-.356.167-1.435.57-1.94.392-.49 1.346-.01 1.37.286a1.8 1.8 0 0 1-.094.627l-.36-.067s.023-.107.054-.275c.033-.178-.43-.356-.57-.171-.13.173-.39.775-.428 1.255-.04.508.448.401.57.342.098-.048.171-.456.171-.456l-.342-.114.114-.343zM10.132 28.895l.553-2.487c1.35.147 1.47.523 1.496.927-.053.313-.137.531-.407.585.316.286.004.887 0 1.333l-.471-.114c.055-.39.517-1.182-.396-1.182l-.255 1.036-.52-.098zm.878-1.365l.147-.586c.54.006.53.222.52.44-.156.346-.432.155-.667.146zM12.98 26.81l.49.076-.215 1.747c.027.578.607.543.72.122l.23-1.823.414.03-.184 2.008c-.185.883-1.504.765-1.67-.077l.215-2.083zM15.308 29.644l.138-2.62c.956.02 1.505.152 1.486.827-.057.923-.804.716-1.149.705l-.092 1.103-.383-.015zm.613-2.145l-.092.643c.237-.023.528.181.644-.275-.01-.356-.28-.376-.552-.368zM19.046 29.552l-.413-2.528c.214-.035 1.262-.419 1.517.276.125.424-.005.577-.154.766.282.09.377.31.445.551.02.382-.108.635-.353.72l-1.042.215zm.108-2.252l.122.659c.3-.067.456-.245.43-.475-.04-.176-.186-.305-.552-.184zm.23 1.149l.107.674c.25.006.48-.145.413-.46-.063-.303-.318-.255-.52-.214zM22.019 27.223l.444-.076c-.093-.324-.032-.785-1.057-.629-.625.144-.443.928-.337 1.67.18.868.312.998.98.95.312-.06.729-.15.613-1.026l-.444.061c.048.234.101.413-.153.598-.22.028-.317.08-.46-.2l-.23-1.21c-.044-.258.04-.41.245-.505.225-.02.328.09.399.367zM23.397 28.77l-.137-2.635.52-.137 1.287 2.175-.352.23-.429-.613-.49.184.046.643-.445.154zm.276-2.006l.046.858.475-.138-.52-.72z"/>
    </g>
</svg>
