<svg xmlns="http://www.w3.org/2000/svg" width="108" height="32" viewBox="0 0 108 32">
    <g fill="none" fill-rule="evenodd">
        <path fill="#F15A23" d="M.017 11.307l9.044 11.408-9.044 7.494zM3.657 30.21l6.805-5.694 4.703 5.693zM.017 5.202l2.36 2.986 9.704 12.125 3.145-2.504s-2.61-3.073-4.364-6.502c-3.427-6.705-1-10.88-1-10.88H.017v4.775zM13.464 22.185l3.203-2.645s3.058 4.026 6.604 4.976c4.648 1.246 6.705-1.801 6.705-1.801v7.494H19.77l2.302-1.99s-1.201.8-4.138-1.234c-1.734-1.2-4.469-4.8-4.469-4.8zM13.759.405s-1.022 1.392-.295 4.797c.777 3.64 3.869 7.492 3.862 7.406 0 0 .198-3.825 2.443-6.07 4.784-4.784 10.207-1.936 10.207-1.936V.427L13.76.405z"/>
        <path fill="#F15A23" d="M29.976 9.645s-3.025-2.591-5.656-2.591c-3.365 0-5.202 2.905-5.202 5.012 0 3.07 1.474 4.775 2.953 6.254 2.125 2.125 4.71 4.417 7.905 2.573V9.645z"/>
        <path fill="#005E6A" d="M64.434.718h7.14s6.325 9.577 9.433 13.533c3.109 3.957 6.455 8.464 6.455 8.464V2.862c0-.857-2.251-2.144-2.251-2.144h8.233s-2.702 1.11-2.702 2.144v28.881s-2.592-1.437-5.531-4.853C81.908 23.052 70.159 7.558 70.159 7.558v20.069c0 1.027 2.251 2.582 2.251 2.582h-7.976s2.187-1.567 2.187-2.582V2.862c0-.911-2.187-2.144-2.187-2.144zM98.055.718h9.164s-2.461 1.165-2.461 2.144v24.765c0 1.07 2.46 2.582 2.46 2.582h-9.163s2.291-1.547 2.291-2.582V2.862c0-.941-2.29-2.144-2.29-2.144zM37.474.718s2.376 1.184 2.376 2.144v24.765c0 1.052-2.376 2.582-2.376 2.582H51.05c.848 0 10.351-1.554 10.351-8.88 0-7.326-7.382-8.012-7.382-8.012s4.497-1.25 4.497-6.263c0-5.403-6.618-6.336-7.466-6.336H37.474zm7.212 12.113v-9.22h5.515c.849 0 3.818.99 3.818 4.666 0 3.03-2.97 4.554-3.818 4.554h-5.515zm0 2.418h6.364c.848 0 5.854 1.3 5.854 5.644 0 4.428-5.006 5.997-5.854 5.997h-6.364V15.25z"/>
    </g>
</svg>
