<svg xmlns="http://www.w3.org/2000/svg" width="59" height="59" viewBox="0 0 59 59">
    <g fill="none" fill-rule="evenodd">
        <path fill="#FF9024" d="M29.56 4.077c-.895 0-1.619.719-1.619 1.607v4.82c0 .89.724 1.608 1.619 1.608s1.619-.719 1.619-1.607v-4.82c0-.889-.724-1.608-1.619-1.608zM21 14.076l-3.178-3.178a1.588 1.588 0 1 0-2.247 2.247l3.178 3.178A1.588 1.588 0 1 0 21 14.076zM43.305 10.898a1.588 1.588 0 0 0-2.247 0l-3.178 3.178a1.588 1.588 0 1 0 2.247 2.247l3.178-3.178c.62-.62.62-1.626 0-2.247z"/>
        <path fill="#1B7447" d="M55.25 26.502h-4.884v22.305h4.883c.88 0 1.592-.713 1.592-1.593V28.095c0-.88-.712-1.593-1.592-1.593zM3.631 26.502c-.88 0-1.592.713-1.592 1.593v19.119c0 .88.712 1.593 1.592 1.593h4.883V26.502H3.631z"/>
        <path fill="#369363" d="M28.258 27.821a3.19 3.19 0 0 0-2.87 1.779l-4.882 9.798a6.376 6.376 0 0 0 8.3-3.023l1.057-2.118h3.104c.845 0 1.672.344 2.268.942l11.893 11.929V27.821h-18.87z"/>
        <path fill="#369363" d="M33.063 37.639h-1.125l-.093.183c-1.52 3.004-4.483 5.125-7.87 5.399-2.492.201-4.219-.507-6.267-1.428-.832-.374-1.195-1.357-.785-2.166l5.66-11.193a6.445 6.445 0 0 1 5.757-3.517h6.943c.445-.976.72-2.04.72-3.18 0-.88-.719-1.59-1.608-1.59h-12.49a4.833 4.833 0 0 0-4.318 2.637l-1.438 2.844c-.273.539-.83.88-1.44.88h-2.837V48.77h7.378l4.557 4.505c1.321 1.306 3.224 1.718 4.866 1.175l13.739-4.269a4.664 4.664 0 0 0 2.078-1.247L33.063 37.639z"/>
    </g>
</svg>
