<svg xmlns="http://www.w3.org/2000/svg" width="59" height="59" viewBox="0 0 59 59">
    <g fill="none" fill-rule="evenodd">
        <path fill="#369363" d="M7.795 26.742h43.53a.36.36 0 0 1 .36.36V30.1H7.435v-2.998a.36.36 0 0 1 .36-.36z"/>
        <path fill="#369363" fill-rule="nonzero" d="M10.793 30.1v25.302a.6.6 0 0 0 .6.6h37.294a.6.6 0 0 0 .6-.6V30.1H10.793z"/>
        <path fill="#1B7447" d="M10.793 32.138h38.494v-2.04H10.793z"/>
        <path fill="#000" d="M28.871 8.87a.3.3 0 0 0 .133.252c.088.066.22.126.397.18v-.78c-.353.034-.53.15-.53.349z"/>
        <path fill="#FF9024" fill-rule="nonzero" d="M29.74 3.118c6.877 0 12.471 5.629 12.471 12.548a12.55 12.55 0 0 1-3.954 9.157H21.222a12.551 12.551 0 0 1-3.954-9.157c0-6.919 5.595-12.548 12.472-12.548zm2.485 13.058a2.13 2.13 0 0 0-.173-.44 1.475 1.475 0 0 0-.292-.365 3.514 3.514 0 0 0-.34-.287 3.29 3.29 0 0 0-.416-.245 7.3 7.3 0 0 0-.864-.382 8.325 8.325 0 0 1-.718-.313 1.919 1.919 0 0 1-.309-.179 2.45 2.45 0 0 1-.217-.19.648.648 0 0 1-.162-.238.791.791 0 0 1-.047-.276c0-.26.11-.473.33-.638.22-.165.505-.247.853-.247.154 0 .311.022.47.066a2.391 2.391 0 0 1 .733.333c.1.067.172.118.214.153.042.034.07.057.08.069a.17.17 0 0 0 .149.04c.055-.004.097-.035.126-.092l.446-.84c.044-.076.035-.15-.027-.218a1.918 1.918 0 0 0-.083-.08 2.873 2.873 0 0 0-.215-.167 2.633 2.633 0 0 0-.35-.216 3.444 3.444 0 0 0-1.086-.325v-1.012a.184.184 0 0 0-.05-.132.168.168 0 0 0-.126-.052h-.743a.166.166 0 0 0-.124.055.18.18 0 0 0-.052.13v1.034c-.576.115-1.044.372-1.404.77-.36.4-.54.863-.54 1.392 0 .157.017.307.048.448.03.142.07.27.115.383.046.113.111.224.196.333.084.11.164.203.24.282.074.079.172.16.294.244a5.6 5.6 0 0 0 .31.205c.087.051.201.11.344.178.144.067.256.117.339.152l.338.144c.199.08.345.142.44.187.096.044.217.105.364.184.147.078.254.15.322.215s.13.146.184.242a.602.602 0 0 1 .083.304c0 .303-.113.537-.339.702a1.294 1.294 0 0 1-.784.247c-.135 0-.271-.015-.407-.046-.477-.1-.923-.34-1.337-.719l-.011-.011a.134.134 0 0 0-.132-.052c-.059.008-.101.03-.127.07l-.567.775c-.055.077-.051.156.011.236.019.023.05.058.097.104.046.046.13.118.255.215.125.098.261.19.408.276.147.087.333.172.558.256.226.085.46.144.702.178v1.007c0 .05.018.093.052.129a.166.166 0 0 0 .124.055h.743a.168.168 0 0 0 .127-.052.184.184 0 0 0 .05-.132v-1.007c.583-.1 1.057-.36 1.422-.784.365-.424.548-.93.548-1.515a1.97 1.97 0 0 0-.073-.541z"/>
    </g>
</svg>
