<svg xmlns="http://www.w3.org/2000/svg" width="59" height="59" viewBox="0 0 59 59">
    <g fill="none" fill-rule="evenodd" transform="translate(3.598 3.837)">
        <circle cx="26.022" cy="4.557" r="4.557" fill="#369363"/>
        <path fill="#1B7447" d="M27.718 9.955l-.064-.002H24.27c-3.468.065-6.227 2.909-6.162 6.352l.001.064v.96c0 .479.182 1.019.725 1.019H33.09c.543 0 .724-.54.724-1.02v-.96c.101-3.442-2.628-6.313-6.096-6.413z"/>
        <path fill="#FF9024" d="M6.189 29.74a.907.907 0 0 0 .912-.902c-.013-5.655 2.584-11.009 7.054-14.541a.835.835 0 0 0 .122-1.262.92.92 0 0 0-1.277-.12c-4.883 3.877-7.723 9.734-7.724 15.923 0 .498.409.902.913.902zM31.783 46.456a17.39 17.39 0 0 1-11.68 0c-.467-.164-.968.113-1.12.619a.835.835 0 0 0-.006.022c-.121.51.135 1.038.593 1.219 2.049.72 4.19 1.089 6.344 1.09a18.613 18.613 0 0 0 6.462-1.154c.437-.244.608-.825.382-1.297-.183-.385-.583-.59-.975-.5zM36.6 13.767l.011.008c4.868 3.545 7.765 9.286 7.777 15.41 0 .505.398.915.89.915s.89-.41.89-.914c-.016-6.73-3.2-13.037-8.548-16.934a.934.934 0 0 0-1.246.244.928.928 0 0 0 .226 1.27z"/>
        <circle cx="7.675" cy="37.535" r="4.557" fill="#369363"/>
        <path fill="#1B7447" d="M9.61 43.172l-.064-.001H6.163c-3.468.064-6.227 2.908-6.162 6.352l.002.063v.96c0 .48.18 1.019.724 1.019h14.255c.543 0 .725-.54.725-1.02v-.959c.1-3.442-2.63-6.314-6.097-6.414z"/>
        <circle cx="44.01" cy="37.535" r="4.557" fill="#369363"/>
        <path fill="#1B7447" d="M45.586 43.172l-.065-.001H42.14c-3.469.064-6.227 2.908-6.162 6.352l.001.063v.96c0 .48.181 1.019.725 1.019h14.255c.543 0 .724-.54.724-1.02v-.959c.101-3.442-2.629-6.314-6.096-6.414z"/>
    </g>
</svg>
