<svg xmlns="http://www.w3.org/2000/svg" width="59" height="59" viewBox="0 0 59 59">
    <g fill="none" fill-rule="evenodd" transform="translate(12.352 3.598)">
        <path fill="#FF9024" d="M33.49 23.036a1.08 1.08 0 0 0-1.157.079c-2.764 2.026-4.974 3.544-6.386 4.39-2.448 1.47-6.127 3.291-8.783 4.561-.334.161-.565.482-.607.851-.045.369.103.735.391.969 4.792 3.888 10.256 7.6 13.086 9.466a1.092 1.092 0 0 0 .876.141c.3-.079.55-.283.69-.56a16.177 16.177 0 0 0 1.547-4.812l.201-1.34.707-12.732a1.083 1.083 0 0 0-.565-1.013z"/>
        <path fill="#1B7447" d="M28.775 45.036c-3.042-1.999-10.71-7.179-16.198-12.089-4.502-4.027-8.215-8.25-10.538-11.085a1.081 1.081 0 1 0-1.917.744l.796 14.242.19 1.23c1.224 7.954 7.967 13.727 16.03 13.727 4.459 0 8.77-1.87 11.831-5.129.218-.232.321-.548.283-.865a1.073 1.073 0 0 0-.477-.775z"/>
        <path fill="#1B7447" fill-rule="nonzero" d="M17.164 0C8.33 0 .96 6.602.017 15.357c-.043.396-.026.646.305.87.076.083.26.318.541.674 1.613 2.043 6.525 8.26 12.53 13.755a1.074 1.074 0 0 0 1.185.182c2.076-.97 7.238-3.423 10.284-5.246 2.577-1.542 7.196-4.978 9.062-6.384.255-.19.41-.483.427-.8l.066-1.19C34.417 7.724 26.677 0 17.164 0z"/>
        <path fill="#FFF" fill-rule="nonzero" d="M27.441 17.164c-.94 5.024-5.261 8.738-10.293 8.738-5.031 0-9.353-3.714-10.293-8.738a3.093 3.093 0 0 1-1.579-2.71c0-1.308.823-2.454 2-2.909 1.19-3.405 3.995-5.925 7.333-6.8-.181.337-.34.687-.481 1.065-.346.93-.279 1.945.185 2.859a4.016 4.016 0 0 0 2.48 2.032 3.324 3.324 0 0 0 2.538-.293 3.313 3.313 0 0 0 1.588-2 2.884 2.884 0 0 0-1.99-3.557 1.076 1.076 0 0 0-.59 2.07c.388.11.612.514.502.9a1.17 1.17 0 0 1-.56.707 1.162 1.162 0 0 1-.899.103 1.88 1.88 0 0 1-1.142-.936c-.135-.264-.26-.675-.089-1.138.287-.77.63-1.43 1.608-2.12 4.164.257 7.848 3.063 9.26 7.109 1.18.454 2.001 1.6 2.001 2.907a3.093 3.093 0 0 1-1.579 2.71z"/>
        <ellipse cx="12.808" cy="15.074" fill="#1B7447" fill-rule="nonzero" rx="1.072" ry="1.073"/>
        <ellipse cx="21.383" cy="15.074" fill="#1B7447" fill-rule="nonzero" rx="1.072" ry="1.073"/>
        <path fill="#1B7447" fill-rule="nonzero" d="M15.008 20.05c0 .838.96 1.517 2.144 1.517 1.184 0 2.144-.68 2.144-1.517 0-.838-4.288-.838-4.288 0z"/>
    </g>
</svg>
