<?xml version="1.0" encoding="UTF-8"?>
<!DOCTYPE svg PUBLIC "-//W3C//DTD SVG 1.1//EN" "http://www.w3.org/Graphics/SVG/1.1/DTD/svg11.dtd">
<!-- Creator: CorelDRAW X8 -->
<svg xmlns="http://www.w3.org/2000/svg" xml:space="preserve" width="20px" height="20px" version="1.1" style="shape-rendering:geometricPrecision; text-rendering:geometricPrecision; image-rendering:optimizeQuality; fill-rule:evenodd; clip-rule:evenodd"
viewBox="0 0 2000000 2000000"
 xmlns:xlink="http://www.w3.org/1999/xlink">
 <defs>
  <style type="text/css">
   <![CDATA[
    .fil0 {fill:#34A976}
   ]]>
  </style>
 </defs>
 <g id="Layer_x0020_1">
  <metadata id="CorelCorpID_0Corel-Layer"/>
  <g id="_1689119412720">
   <path class="fil0" d="M1000000 7087c548311,0 992913,444602 992913,992913 0,548311 -444602,992913 -992913,992913 -548311,0 -992913,-444602 -992913,-992913 0,-548311 444602,-992913 992913,-992913zm-338058 1629223c26459,12757 83865,79731 196433,48665 136073,-37444 193007,-204819 96976,-323293 -31774,-39098 -88826,-65911 -84219,-176116 65910,-12521 92723,-13702 150720,15828 111269,56815 86582,160879 142570,223364 108080,120364 296244,75833 341602,-69100 30829,-98984 -14410,-199386 -109733,-243444 -117056,-54217 -184975,49374 -305575,-24451 -21852,-13348 -86109,-67683 -74888,-97449 5434,-14647 30239,-47602 38861,-55044 137728,-121072 219821,17364 362864,-60949 35435,-19254 66737,-56225 84101,-98630 26222,-63903 11575,-102528 -4135,-161115 -24332,-26223 -44294,-87290 -144696,-105835 -54099,-10040 -113395,4961 -154028,35199 -15473,11458 -22679,23034 -34963,32365 -56107,77841 -32956,114340 -90480,181314 -50909,59296 -129104,68155 -202339,53744 -2126,-77723 25514,-121781 74888,-168084 60477,-56579 75715,-158280 33546,-233877 -10394,-18544 -23860,-32246 -30238,-46893 -13939,-2363 -4725,945 -19608,-10158 -126388,-95323 -271557,-27995 -310773,84219 -25395,72525 -5551,151193 35790,195251 46894,49729 87409,77723 84928,179188 -159933,53744 -176825,262698 -51263,349279 6732,4607 16536,10867 25041,15356 4370,2126 9922,3898 15001,7087 9332,6142 6851,1772 11694,12048 -5079,132648 -66738,127451 -110678,207536 -19254,35436 -27404,80676 -19017,126152 11693,65202 43350,87290 51618,107843z"/>
   <path class="fil0" d="M796716 877864c-155918,25396 -145051,224191 0,240964 0,52091 -236,104182 0,156272 473,117293 -96976,150603 -82447,234468 16655,96267 158162,100165 178597,4843 10867,-50437 -19372,-83865 -39098,-117884 -9804,-17009 -18190,-32955 -29294,-51145 -15237,-25042 -12757,-31775 -12638,-65793 354,-52918 -237,-105953 118,-158871 38507,-10985 58587,-14883 84691,-44531l11458 -11694c26813,11104 256319,138318 263643,147650 10040,12993 50909,107725 69572,135601 28585,42995 103119,53390 142216,10394 40279,-44176 27758,-109260 -17009,-140207 -43232,-29885 -136783,-7678 -184030,-21262l-268486 -146232c15237,-48075 12875,-56815 0,-104181l265651 -144579c36026,-15001 137255,7324 184266,-21025 46067,-27876 60832,-97330 19490,-141980 -36145,-38979 -112450,-34963 -139381,8623 -19608,31656 -53272,115521 -72289,137137 -9804,11103 -245334,141980 -269313,148594 -15710,-37207 -44767,-40397 -90716,-56815 827,-51146 2127,-99221 2008,-150130 -118,-76542 8269,-68746 38744,-122726 18781,-33192 49492,-69218 41342,-117175 -15710,-92960 -157572,-100047 -178833,-2599 -10041,46185 20198,84692 38743,115994 41105,69454 42050,59532 41814,117529 -118,53744 1181,107016 1181,160760z"/>
  </g>
 </g>
</svg>
