<svg xmlns="http://www.w3.org/2000/svg" xmlns:xlink="http://www.w3.org/1999/xlink" width="68" height="68" viewBox="0 0 68 68">
    <defs>
        <rect id="b" width="50" height="50" rx="5"/>
        <filter id="a" width="164%" height="164%" x="-32%" y="-22%" filterUnits="objectBoundingBox">
            <feOffset dy="5" in="SourceAlpha" result="shadowOffsetOuter1"/>
            <feGaussianBlur in="shadowOffsetOuter1" result="shadowBlurOuter1" stdDeviation="4.5"/>
            <feColorMatrix in="shadowBlurOuter1" values="0 0 0 0 0.211764706 0 0 0 0 0.576470588 0 0 0 0 0.388235294 0 0 0 0.291723279 0"/>
        </filter>
    </defs>
    <g fill="none" fill-rule="nonzero">
        <g transform="translate(9 4)">
            <use fill="#000" filter="url(#a)" xlink:href="#b"/>
            <use fill="#369363" xlink:href="#b"/>
        </g>
        <g fill="#FFF">
            <path d="M26.774 16.806c-2.241 0-4.064 1.786-4.064 3.981v5.152c0 .443.367.803.82.803h6.489c.453 0 .82-.36.82-.803v-5.152c0-2.195-1.824-3.98-4.065-3.98zm2.425 8.33h-4.85v-4.349c0-1.31 1.088-2.375 2.425-2.375 1.337 0 2.425 1.066 2.425 2.375v4.35z"/>
            <path d="M47.053 26.027a3.369 3.369 0 0 0-2.489-1.092h-6.772c-.95 0-1.833.388-2.488 1.092-.24.257-.436.544-.587.852a3.373 3.373 0 0 0-.717-.077c-1.327 0-2.48.771-3.056 1.898a3.253 3.253 0 0 0-1.105-.195H24.07c-1.778 0-3.316 1.476-3.428 3.29l-.64 10.313a.85.85 0 0 0 .22.627.812.812 0 0 0 .598.265h25.697c.437 0 .798-.35.82-.797l.659-13.58a3.528 3.528 0 0 0-.943-2.596zM34 28.48c.996 0 1.806.828 1.806 1.847 0 1.018-.81 1.846-1.806 1.846s-1.806-.828-1.806-1.846c0-1.019.81-1.847 1.806-1.847zm-4.613 7.596v5.246h-7.693l.585-9.42c.058-.932.878-1.72 1.791-1.72h5.769c.25 0 .493.06.715.165.005.908.347 1.736.905 2.358a3.753 3.753 0 0 0-2.072 3.371zm7.585 5.246h-5.944v-5.246c0-1.137.905-2.063 2.017-2.063h1.91c1.112 0 2.017.926 2.017 2.063v5.246zm9.385-12.782l-.62 12.782h-7.124v-5.246a3.753 3.753 0 0 0-2.072-3.37 3.555 3.555 0 0 0 .905-2.38 3.55 3.55 0 0 0-1.251-2.715c.077-.154.177-.298.297-.427a1.76 1.76 0 0 1 1.3-.57h6.772c.497 0 .958.202 1.3.57.343.367.518.849.493 1.356zM40.774 15c-2.49 0-4.516 1.823-4.516 4.065 0 2.24 2.026 4.064 4.516 4.064s4.516-1.823 4.516-4.064c0-2.242-2.026-4.065-4.516-4.065zm0 6.636c-1.575 0-2.857-1.153-2.857-2.571 0-1.418 1.282-2.572 2.857-2.572 1.576 0 2.858 1.154 2.858 2.572 0 1.418-1.282 2.571-2.858 2.571z"/>
        </g>
    </g>
</svg>
