<svg xmlns="http://www.w3.org/2000/svg" xmlns:xlink="http://www.w3.org/1999/xlink" width="68" height="68" viewBox="0 0 68 68">
    <defs>
        <rect id="b" width="50" height="50" rx="5"/>
        <filter id="a" width="164%" height="164%" x="-32%" y="-22%" filterUnits="objectBoundingBox">
            <feOffset dy="5" in="SourceAlpha" result="shadowOffsetOuter1"/>
            <feGaussianBlur in="shadowOffsetOuter1" result="shadowBlurOuter1" stdDeviation="4.5"/>
            <feColorMatrix in="shadowBlurOuter1" values="0 0 0 0 0.211764706 0 0 0 0 0.576470588 0 0 0 0 0.388235294 0 0 0 0.291723279 0"/>
        </filter>
    </defs>
    <g fill="none" fill-rule="nonzero">
        <g transform="translate(9 4)">
            <use fill="#000" filter="url(#a)" xlink:href="#b"/>
            <use fill="#369363" xlink:href="#b"/>
        </g>
        <g fill="#FFF">
            <path d="M47.57 32.531a.843.843 0 0 0-1.072.21 11.506 11.506 0 0 1-9.052 4.371c-6.373 0-11.558-5.185-11.558-11.558 0-3.544 1.593-6.843 4.371-9.052a.842.842 0 0 0-.815-1.45 14.378 14.378 0 0 0-6.788 5.195A14.32 14.32 0 0 0 20 28.586c0 3.85 1.5 7.47 4.222 10.192A14.32 14.32 0 0 0 34.414 43c3.01 0 5.893-.918 8.339-2.656a14.378 14.378 0 0 0 5.195-6.788.842.842 0 0 0-.378-1.025zm-13.156 8.784c-7.019 0-12.73-5.71-12.73-12.73 0-3.625 1.56-7.012 4.133-9.38a13.202 13.202 0 0 0-1.614 6.349c0 3.537 1.378 6.863 3.879 9.364a13.156 13.156 0 0 0 9.364 3.879c2.26 0 4.432-.565 6.35-1.614a12.777 12.777 0 0 1-9.382 4.132z"/>
            <path d="M33.267 27.243l-.226 2.559a.843.843 0 0 0 1.17.849l2.363-1.005 2.364 1.005a.842.842 0 0 0 1.169-.85l-.226-2.558 1.686-1.937a.842.842 0 0 0-.446-1.374l-2.503-.577-1.322-2.202a.842.842 0 0 0-1.444 0l-1.322 2.202-2.503.577a.843.843 0 0 0-.446 1.374l1.686 1.937zm1.99-2.326a.843.843 0 0 0 .534-.388l.783-1.306.784 1.306c.117.197.31.337.533.388l1.484.341-1 1.149a.844.844 0 0 0-.204.627l.134 1.517-1.401-.596a.84.84 0 0 0-.66 0l-1.401.596.134-1.517a.842.842 0 0 0-.204-.627l-1-1.149 1.484-.341z"/>
        </g>
    </g>
</svg>
