<svg xmlns="http://www.w3.org/2000/svg" xmlns:xlink="http://www.w3.org/1999/xlink" width="68" height="68" viewBox="0 0 68 68">
    <defs>
        <rect id="b" width="50" height="50" rx="5"/>
        <filter id="a" width="164%" height="164%" x="-32%" y="-22%" filterUnits="objectBoundingBox">
            <feOffset dy="5" in="SourceAlpha" result="shadowOffsetOuter1"/>
            <feGaussianBlur in="shadowOffsetOuter1" result="shadowBlurOuter1" stdDeviation="4.5"/>
            <feColorMatrix in="shadowBlurOuter1" values="0 0 0 0 0.211764706 0 0 0 0 0.576470588 0 0 0 0 0.388235294 0 0 0 0.291723279 0"/>
        </filter>
    </defs>
    <g fill="none" fill-rule="nonzero">
        <g transform="translate(9 4)">
            <use fill="#000" filter="url(#a)" xlink:href="#b"/>
            <use fill="#369363" xlink:href="#b"/>
        </g>
        <g fill="#FFF">
            <path d="M34.903 26.8c-1.743 0-3.161 1.615-3.161 3.6S33.16 34 34.903 34s3.162-1.615 3.162-3.6-1.419-3.6-3.162-3.6zm0 5.838c-1.083 0-1.965-1.004-1.965-2.238s.882-2.238 1.965-2.238c1.084 0 1.965 1.004 1.965 2.238s-.881 2.238-1.965 2.238z"/>
            <path d="M47.907 24.032c.265-1.898-.04-3.512-.881-4.704a2.29 2.29 0 0 0 .215-.97c0-1.3-1.088-2.358-2.424-2.358-.904 0-1.693.484-2.11 1.198-2.284-.11-5.08.705-7.974 2.332-4.942-2.778-9.416-3.112-11.737-.853-1.009.98-1.531 2.385-1.529 4.081-.862.362-1.467 1.197-1.467 2.167 0 1.3 1.088 2.358 2.424 2.358l.042-.001c.373.922.845 1.865 1.407 2.812-2.856 4.807-3.199 9.16-.877 11.417 1.024.997 2.467 1.49 4.185 1.489 2.175 0 4.79-.79 7.552-2.342C37.494 42.211 40.109 43 42.285 43c1.717 0 3.16-.492 4.185-1.488 2.322-2.259 1.978-6.611-.879-11.418 1.257-2.116 2.056-4.205 2.316-6.062zm-3.09-6.705c.584 0 1.06.463 1.06 1.031 0 .569-.476 1.032-1.06 1.032-.585 0-1.06-.463-1.06-1.032 0-.568.475-1.031 1.06-1.031zm-2.419 1.188c.083 1.227 1.136 2.202 2.419 2.202a2.46 2.46 0 0 0 1.267-.35c.505.892.668 2.081.472 3.486-.211 1.508-.825 3.202-1.786 4.949a30.015 30.015 0 0 0-3.928-4.651 30.527 30.527 0 0 0-4.782-3.822c2.328-1.214 4.527-1.844 6.338-1.814zm-19.974 7.441c-.584 0-1.06-.463-1.06-1.031 0-.57.476-1.032 1.06-1.032.585 0 1.06.463 1.06 1.032 0 .568-.475 1.031-1.06 1.031zm1.348.928a2.342 2.342 0 0 0 1.077-1.96c0-1.165-.874-2.135-2.017-2.324.027-1.264.412-2.288 1.128-2.985 1.744-1.697 5.382-1.399 9.444.715a30.524 30.524 0 0 0-4.78 3.82 30.036 30.036 0 0 0-3.929 4.652 18.826 18.826 0 0 1-.923-1.918zm.188 13.69c-1.744-1.697-1.437-5.236.736-9.188a30.035 30.035 0 0 0 3.927 4.651 30.529 30.529 0 0 0 4.781 3.821c-4.062 2.114-7.7 2.412-9.444.715zm5.628-5.475c-1.625-1.58-3.01-3.262-4.125-5.005 1.114-1.742 2.5-3.425 4.125-5.005 1.624-1.58 3.354-2.929 5.145-4.012 1.791 1.083 3.52 2.431 5.145 4.012 1.625 1.581 3.01 3.263 4.124 5.005-1.113 1.742-2.499 3.424-4.124 5.005-1.625 1.58-3.354 2.929-5.145 4.013-1.791-1.084-3.52-2.432-5.145-4.013zm15.918 5.474c-1.745 1.697-5.383 1.399-9.445-.715a30.522 30.522 0 0 0 4.781-3.82 30.01 30.01 0 0 0 3.927-4.651c2.174 3.95 2.48 7.49.737 9.186z"/>
        </g>
    </g>
</svg>
