<svg xmlns="http://www.w3.org/2000/svg" width="103" height="103" viewBox="0 0 103 103">
    <g fill="none" fill-rule="nonzero">
        <path fill="#FFCC4D" d="M102.8 51.4c0 28.386-23.014 51.4-51.4 51.4C23.016 102.8 0 79.785 0 51.4 0 23.016 23.016 0 51.4 0c28.386 0 51.4 23.016 51.4 51.4"/>
        <path fill="#664500" d="M39.978 47.116c0 5.523-3.196 9.995-7.14 9.995-3.943 0-7.138-4.472-7.138-9.995 0-5.52 3.195-9.994 7.139-9.994 3.943 0 7.139 4.475 7.139 9.994M80.362 47.116c0 5.523-3.195 9.995-7.139 9.995-3.943 0-7.138-4.472-7.138-9.995 0-5.52 3.195-9.994 7.138-9.994 3.944 0 7.14 4.475 7.14 9.994M67.062 79.61c-.034-.126-3.272-12.505-15.662-12.505-12.396 0-15.634 12.379-15.663 12.504-.151.609.123 1.231.66 1.554.536.32 1.236.245 1.701-.171.03-.02 2.896-2.465 13.302-2.465 10.248 0 13.184 2.37 13.295 2.465a1.429 1.429 0 0 0 2.367-1.383"/>
        <path fill="#5DADEC" d="M28.555 85.666c0 7.887-6.39 14.278-14.277 14.278S0 93.554 0 85.666C0 77.779 11.422 57.11 14.278 57.11c2.855 0 14.277 20.668 14.277 28.555"/>
        <g fill="#664500">
            <path d="M85.666 37.122c-15.86 0-22.279-12.47-22.545-13.001a2.858 2.858 0 0 1 1.28-3.832 2.859 2.859 0 0 1 3.826 1.267c.211.415 5.197 9.855 17.439 9.855a2.855 2.855 0 1 1 0 5.71M17.133 37.122a2.857 2.857 0 0 1 0-5.711c14.515 0 17.122-8.91 17.228-9.29.414-1.507 1.97-2.42 3.48-2.024a2.843 2.843 0 0 1 2.05 3.44c-.14.555-3.614 13.585-22.758 13.585"/>
        </g>
    </g>
</svg>
